<svg xmlns="http://www.w3.org/2000/svg" viewBox="0 0 1024 1024" role="img" aria-labelledby="title desc">
  <title id="title">World Porra logo</title>
  <desc id="desc">A dark app icon with a football pitch, prediction check mark, and a 26 tournament mark.</desc>
  <defs>
    <linearGradient id="bg" x1="128" y1="96" x2="896" y2="928" gradientUnits="userSpaceOnUse">
      <stop offset="0" stop-color="#20262F"/>
      <stop offset="0.52" stop-color="#0F1115"/>
      <stop offset="1" stop-color="#090B0F"/>
    </linearGradient>
    <linearGradient id="pitch" x1="256" y1="236" x2="768" y2="806" gradientUnits="userSpaceOnUse">
      <stop offset="0" stop-color="#08C894"/>
      <stop offset="1" stop-color="#007C62"/>
    </linearGradient>
    <linearGradient id="gold" x1="364" y1="316" x2="654" y2="720" gradientUnits="userSpaceOnUse">
      <stop offset="0" stop-color="#FFE08A"/>
      <stop offset="0.42" stop-color="#F4B83D"/>
      <stop offset="1" stop-color="#B87512"/>
    </linearGradient>
    <linearGradient id="blue" x1="270" y1="250" x2="752" y2="756" gradientUnits="userSpaceOnUse">
      <stop offset="0" stop-color="#6570FF"/>
      <stop offset="1" stop-color="#343AC2"/>
    </linearGradient>
    <filter id="shadow" x="-20%" y="-20%" width="140%" height="150%">
      <feDropShadow dx="0" dy="36" stdDeviation="34" flood-color="#000000" flood-opacity="0.38"/>
    </filter>
  </defs>

  <rect width="1024" height="1024" fill="url(#bg)"/>
  <circle cx="512" cy="512" r="396" fill="#FFFFFF" opacity="0.035"/>
  <circle cx="512" cy="512" r="292" fill="#000000" opacity="0.16"/>

  <g filter="url(#shadow)">
    <path d="M242 314C242 277.549 271.549 248 308 248H716C752.451 248 782 277.549 782 314V710C782 746.451 752.451 776 716 776H308C271.549 776 242 746.451 242 710V314Z" fill="url(#pitch)"/>
    <path d="M324 248H700C745.287 248 782 284.713 782 330V694C782 739.287 745.287 776 700 776H324C278.713 776 242 739.287 242 694V330C242 284.713 278.713 248 324 248Z" fill="none" stroke="#FFFFFF" stroke-opacity="0.18" stroke-width="20"/>
    <path d="M324 512H700" stroke="#FFFFFF" stroke-opacity="0.22" stroke-width="18" stroke-linecap="round"/>
    <circle cx="512" cy="512" r="82" fill="none" stroke="#FFFFFF" stroke-opacity="0.22" stroke-width="18"/>
    <circle cx="512" cy="512" r="13" fill="#FFFFFF" fill-opacity="0.72"/>
    <path d="M242 390H356C373.673 390 388 404.327 388 422V602C388 619.673 373.673 634 356 634H242" fill="none" stroke="#FFFFFF" stroke-opacity="0.18" stroke-width="18"/>
    <path d="M782 390H668C650.327 390 636 404.327 636 422V602C636 619.673 650.327 634 668 634H782" fill="none" stroke="#FFFFFF" stroke-opacity="0.18" stroke-width="18"/>
  </g>

  <g filter="url(#shadow)">
    <path d="M344 326H680C704.301 326 724 345.699 724 370V646C724 670.301 704.301 690 680 690H344C319.699 690 300 670.301 300 646V370C300 345.699 319.699 326 344 326Z" fill="#10141B" fill-opacity="0.88"/>
    <path d="M344 326H680C704.301 326 724 345.699 724 370V646C724 670.301 704.301 690 680 690H344C319.699 690 300 670.301 300 646V370C300 345.699 319.699 326 344 326Z" fill="none" stroke="#FFFFFF" stroke-opacity="0.11" stroke-width="10"/>
    <circle cx="512" cy="414" r="74" fill="url(#gold)"/>
    <path d="M456 395C486 375 538 372 569 396" fill="none" stroke="#FFFFFF" stroke-opacity="0.36" stroke-width="14" stroke-linecap="round"/>
    <path d="M421 444C386 444 359 468 359 505C359 545 391 574 431 574H456C432 539 421 500 421 444Z" fill="url(#gold)"/>
    <path d="M603 444C638 444 665 468 665 505C665 545 633 574 593 574H568C592 539 603 500 603 444Z" fill="url(#gold)"/>
    <path d="M431 427C431 385 466 357 512 357C558 357 593 385 593 427C593 523 566 586 512 621C458 586 431 523 431 427Z" fill="url(#gold)"/>
    <path d="M476 604H548L562 669H462L476 604Z" fill="url(#gold)"/>
    <path d="M429 666H595C611.569 666 625 679.431 625 696V705H399V696C399 679.431 412.431 666 429 666Z" fill="url(#gold)"/>
    <path d="M423 707H601C614.255 707 625 717.745 625 731V742H399V731C399 717.745 409.745 707 423 707Z" fill="#D99A24"/>
    <path d="M455 463C467 527 486 570 512 596C538 570 557 527 569 463" fill="none" stroke="#FFFFFF" stroke-opacity="0.26" stroke-width="18" stroke-linecap="round"/>
    <path d="M512 354C571 354 602 392 602 448C602 523 577 589 512 626C447 589 422 523 422 448C422 392 453 354 512 354Z" fill="none" stroke="#FFF2C0" stroke-opacity="0.22" stroke-width="10"/>
  </g>

  <g>
    <circle cx="704" cy="304" r="122" fill="url(#blue)"/>
    <circle cx="704" cy="304" r="110" fill="none" stroke="#FFFFFF" stroke-opacity="0.16" stroke-width="12"/>
    <path d="M645 270C645 244 666 225 697 225C729 225 750 243 750 269C750 293 736 308 711 322L681 339H752V383H628V349L685 314C701 304 708 296 708 283C708 271 699 263 685 263C671 263 660 271 657 286L645 286V270Z" fill="#FFFFFF"/>
    <path d="M771 226H826L785 294C793 289 804 286 815 286C849 286 873 306 873 339C873 375 845 399 804 399C762 399 735 374 735 337C735 318 742 300 754 280L771 226ZM803 358C818 358 829 349 829 336C829 322 818 313 803 313C788 313 777 322 777 336C777 349 788 358 803 358Z" fill="#FFFFFF"/>
  </g>
</svg>
